<?xml version="1.0" encoding="UTF-8"?>
<svg width="106px" height="80px" viewBox="0 0 106 80" version="1.1" xmlns="http://www.w3.org/2000/svg" xmlns:xlink="http://www.w3.org/1999/xlink">
    <!-- Generator: Sketch 43.2 (39069) - http://www.bohemiancoding.com/sketch -->
    <title>LOGO</title>
    <desc>Created with Sketch.</desc>
    <defs>
        <filter x="-1.8%" y="-36.9%" width="103.6%" height="176.2%" filterUnits="objectBoundingBox" id="filter-1">
            <feOffset dx="0" dy="1" in="SourceAlpha" result="shadowOffsetOuter1"></feOffset>
            <feGaussianBlur stdDeviation="10" in="shadowOffsetOuter1" result="shadowBlurOuter1"></feGaussianBlur>
            <feColorMatrix values="0 0 0 0 0   0 0 0 0 0   0 0 0 0 0  0 0 0 0.2 0" type="matrix" in="shadowBlurOuter1" result="shadowMatrixOuter1"></feColorMatrix>
            <feMerge>
                <feMergeNode in="shadowMatrixOuter1"></feMergeNode>
                <feMergeNode in="SourceGraphic"></feMergeNode>
            </feMerge>
        </filter>
        <linearGradient x1="68.6079385%" y1="96.6942177%" x2="2.47694163%" y2="3.49093616%" id="linearGradient-2">
            <stop stop-color="#FC6076" offset="0%"></stop>
            <stop stop-color="#FF9A44" offset="100%"></stop>
        </linearGradient>
    </defs>
    <g id="Page-1" stroke="none" stroke-width="1" fill="none" fill-rule="evenodd">
        <g id="PRIMO-PROTOTIPO-2-Copy" transform="translate(-155.000000, 0.000000)">
            <g id="navbar" filter="url(#filter-1)">
                <rect id="Rectangle" fill="#FFFFFF" x="0" y="0" width="1680" height="80"></rect>
                <g id="Group" transform="translate(178.000000, 34.000000)">
                    <g id="Group-2"></g>
                </g>
                <g id="LOGO" transform="translate(155.000000, 0.000000)">
                    <rect id="Rectangle-4" fill="url(#linearGradient-2)" x="0" y="0" width="106" height="80"></rect>
                    <path d="M42.8996201,45.4333779 C42.8996201,44.2023111 42.4618732,43.2573005 41.5863664,42.5983177 C40.7108596,41.9393349 39.1349709,41.2441547 36.8586532,40.5127562 C34.5823354,39.7813578 32.7802775,39.0608324 31.4524255,38.3511586 C27.833664,36.4104181 26.0243103,33.7962508 26.0243103,30.5085784 C26.0243103,28.7995681 26.5094798,27.2752407 27.4798332,25.9355504 C28.4501866,24.5958601 29.8436807,23.549469 31.6603574,22.7963458 C33.477034,22.0432226 35.5162048,21.6666667 37.7779307,21.6666667 C40.0542485,21.6666667 42.0824755,22.0758092 43.8626728,22.8941065 C45.64287,23.7124038 47.0254204,24.8674168 48.0103656,26.35918 C48.9953108,27.8509433 49.487776,29.5454451 49.487776,31.4427362 L42.9215076,31.4427362 C42.9215076,29.9944223 42.4618734,28.8683752 41.5425913,28.0645611 C40.6233091,27.2607469 39.3319559,26.8588458 37.6684929,26.8588458 C36.0633971,26.8588458 34.8158186,27.1955737 33.9257199,27.8690397 C33.0356213,28.5425056 32.5905787,29.4295845 32.5905787,30.530303 C32.5905787,31.5586059 33.112227,32.4203397 34.1555393,33.1155303 C35.1988516,33.8107209 36.7346135,34.4624524 38.762871,35.0707442 C42.4983668,36.1859459 45.219693,37.5690648 46.9269313,39.2201426 C48.6341697,40.8712204 49.487776,42.9277952 49.487776,45.3899287 C49.487776,48.1272419 48.4444793,50.2743349 46.3578547,51.8312723 C44.2712301,53.3882097 41.4623545,54.1666667 37.9311437,54.1666667 C35.4797245,54.1666667 33.2472156,53.7213168 31.2335499,52.8306038 C29.2198842,51.9398908 27.6841224,50.7197047 26.6262183,49.1700089 C25.5683142,47.6203131 25.0393701,45.8244309 25.0393701,43.7823084 L31.627526,43.7823084 C31.627526,47.2727447 33.7287109,49.0179367 37.9311437,49.0179367 C39.4924642,49.0179367 40.7108596,48.7029332 41.5863664,48.0729167 C42.4618732,47.4429001 42.8996201,46.5630627 42.8996201,45.4333779 Z M53.9309509,53.7321747 L53.9309509,22.1011586 L63.7365784,22.1011586 C66.5382002,22.1011586 69.0443009,22.727545 71.2549557,23.9803365 C73.4656104,25.2331279 75.1910626,27.0145272 76.4313639,29.3245878 C77.6716653,31.6346484 78.2918066,34.2596778 78.2918066,37.1997549 L78.2918066,38.655303 C78.2918066,41.5953801 77.6826089,44.2095474 76.4641953,46.4978832 C75.2457816,48.7862191 73.5276252,50.5603769 71.3096746,51.82041 C69.0917239,53.080443 66.5892711,53.7176915 63.8022411,53.7321747 L53.9309509,53.7321747 Z M70.2386432,32.0481283 L70.2386432,21.6666667 L73.5465375,21.6666667 C74.4916548,21.6666667 75.3370791,21.8722499 76.0828358,22.2834225 C76.8285925,22.694595 77.4106677,23.2792594 77.8290791,24.0374332 C78.2474904,24.7956069 78.4566929,25.657155 78.4566929,26.6221034 L78.4566929,27.0998217 C78.4566929,28.0647701 78.2511822,28.9227532 77.8401546,29.6737968 C77.429127,30.4248404 76.8495129,31.0071281 76.101295,31.4206774 C75.3530771,31.8342267 74.5088834,32.0433749 73.5686885,32.0481283 L70.2386432,32.0481283 Z" id="SD" fill="#FFFFFF"></path>
                </g>
            </g>
        </g>
    </g>
</svg>